<svg width="2000" height="2000" viewBox="0 0 2000 2000" fill="none" xmlns="http://www.w3.org/2000/svg">
<path d="M204.05 1651.47C204.05 1651.47 -97.28 1299.32 331.19 1186.18C759.66 1073.04 872.56 976.18 1075.12 683.01C1277.68 389.84 2149.22 468.25 1794.71 1665.01L204.05 1651.47Z" fill="#E2EEFC"/>
<path d="M322.91 962.41C603.79 969.19 883 814.76 1026.5 573.23C1054.21 526.59 1043.18 460.64 1001.8 425.56C960.42 390.48 893.55 390.39 852.08 425.37C783.43 483.26 692.4 506.08 604.08 522.16C515.76 538.24 424.59 549.92 344.72 591C264.85 632.08 196.91 710.66 198.16 800.45C199.41 890.24 292.21 961.67 322.91 962.41Z" fill="#E2EEFC"/>
<path d="M1766.05 1245.6H1438.05V1639.09H1766.05V1245.6Z" fill="#CCDEFF"/>
<path d="M1539.63 1266.19H1458.63V1281.19H1539.63V1266.19Z" fill="#E2EEFC"/>
<path d="M1637.63 1266.19H1556.63V1281.19H1637.63V1266.19Z" fill="#E2EEFC"/>
<path d="M1733.63 1266.19H1652.63V1281.19H1733.63V1266.19Z" fill="#E2EEFC"/>
<path d="M1540.63 1293.19H1459.63V1308.19H1540.63V1293.19Z" fill="#E2EEFC"/>
<path d="M1638.63 1293.19H1557.63V1308.19H1638.63V1293.19Z" fill="#E2EEFC"/>
<path d="M1734.63 1293.19H1653.63V1308.19H1734.63V1293.19Z" fill="#E2EEFC"/>
<path d="M1540.63 1320.19H1459.63V1335.19H1540.63V1320.19Z" fill="#E2EEFC"/>
<path d="M1638.63 1320.19H1557.63V1335.19H1638.63V1320.19Z" fill="#E2EEFC"/>
<path d="M1734.63 1320.19H1653.63V1335.19H1734.63V1320.19Z" fill="#E2EEFC"/>
<path d="M1541.63 1347.19H1460.63V1362.19H1541.63V1347.19Z" fill="#E2EEFC"/>
<path d="M1639.63 1347.19H1558.63V1362.19H1639.63V1347.19Z" fill="#E2EEFC"/>
<path d="M1735.63 1347.19H1654.63V1362.19H1735.63V1347.19Z" fill="#E2EEFC"/>
<path d="M1542.63 1374.19H1461.63V1389.19H1542.63V1374.19Z" fill="#E2EEFC"/>
<path d="M1640.63 1374.19H1559.63V1389.19H1640.63V1374.19Z" fill="#E2EEFC"/>
<path d="M1736.63 1374.19H1655.63V1389.19H1736.63V1374.19Z" fill="#E2EEFC"/>
<path d="M1542.63 1401.19H1461.63V1416.19H1542.63V1401.19Z" fill="#E2EEFC"/>
<path d="M1640.63 1401.19H1559.63V1416.19H1640.63V1401.19Z" fill="#E2EEFC"/>
<path d="M1736.63 1401.19H1655.63V1416.19H1736.63V1401.19Z" fill="#E2EEFC"/>
<path d="M1736.63 1442.34H1461.63V1542.34H1736.63V1442.34Z" fill="#E2EEFC"/>
<path d="M1773.41 1156.94H1671.41V1639.09H1773.41V1156.94Z" fill="#CCDEFF"/>
<path d="M1793.76 1201.09H1763.76V1639.09H1793.76V1201.09Z" fill="#CCDEFF"/>
<path d="M446.97 1386.1H288.97V1640.1H446.97V1386.1Z" fill="#CCDEFF"/>
<path d="M423.03 1411.18H305.53V1434.18H423.03V1411.18Z" fill="#E2EEFC"/>
<path d="M423.03 1449.6H305.53V1472.6H423.03V1449.6Z" fill="#E2EEFC"/>
<path d="M423.09 1488.01H305.59V1511.01H423.09V1488.01Z" fill="#E2EEFC"/>
<path d="M423.09 1525.64H305.59V1548.64H423.09V1525.64Z" fill="#E2EEFC"/>
<path d="M562.07 1305.1H404.07V1640.1H562.07V1305.1Z" fill="#CCDEFF"/>
<path d="M900.18 1371.1H547.07V1640.1H900.18V1371.1Z" fill="#CCDEFF"/>
<path d="M288.97 1491.1H200.97V1640.1H288.97V1491.1Z" fill="#CCDEFF"/>
<path d="M608.7 1244.96H605.7V1371.1H608.7V1244.96Z" fill="#CCDEFF"/>
<path d="M642.38 1274H639.38V1371.1H642.38V1274Z" fill="#CCDEFF"/>
<path d="M582.11 1224.83H575.11V1371.1H582.11V1224.83Z" fill="#CCDEFF"/>
<path d="M336.52 1349.69H307.52V1386.1H336.52V1349.69Z" fill="#CCDEFF"/>
<path d="M479.07 1265.75H416.07V1305.09H479.07V1265.75Z" fill="#CCDEFF"/>
<path d="M534.18 1224.83H507.18V1305.1H534.18V1224.83Z" fill="#CCDEFF"/>
<path d="M376.34 1297.96H352.34V1386.1H376.34V1297.96Z" fill="#CCDEFF"/>
<path d="M235.47 1505.6H211.97V1529.1H235.47V1505.6Z" fill="#E2EEFC"/>
<path d="M273.97 1505.6H250.47V1529.1H273.97V1505.6Z" fill="#E2EEFC"/>
<path d="M235.47 1545.1H211.97V1568.6H235.47V1545.1Z" fill="#E2EEFC"/>
<path d="M273.97 1545.1H250.47V1568.6H273.97V1545.1Z" fill="#E2EEFC"/>
<path d="M235.47 1584.6H211.97V1608.1H235.47V1584.6Z" fill="#E2EEFC"/>
<path d="M273.97 1584.6H250.47V1608.1H273.97V1584.6Z" fill="#E2EEFC"/>
<path d="M432.09 1326.39H423.09V1629.39H432.09V1326.39Z" fill="#E2EEFC"/>
<path d="M472.09 1326.39H463.09V1629.39H472.09V1326.39Z" fill="#E2EEFC"/>
<path d="M508.1 1326.39H499.1V1629.39H508.1V1326.39Z" fill="#E2EEFC"/>
<path d="M546.11 1326.39H537.11V1629.39H546.11V1326.39Z" fill="#E2EEFC"/>
<path d="M851.63 1373.81H693.63V1627.81H851.63V1373.81Z" fill="#CCDEFF"/>
<path d="M827.7 1398.9H710.2V1421.9H827.7V1398.9Z" fill="#E2EEFC"/>
<path d="M827.7 1437.31H710.2V1460.31H827.7V1437.31Z" fill="#E2EEFC"/>
<path d="M827.76 1475.73H710.26V1498.73H827.76V1475.73Z" fill="#E2EEFC"/>
<path d="M827.76 1513.36H710.26V1536.36H827.76V1513.36Z" fill="#E2EEFC"/>
<path d="M966.74 1292.81H808.74V1627.81H966.74V1292.81Z" fill="#CCDEFF"/>
<path d="M1304.85 1358.81H951.74V1627.81H1304.85V1358.81Z" fill="#CCDEFF"/>
<path d="M693.63 1478.81H605.63V1627.81H693.63V1478.81Z" fill="#CCDEFF"/>
<path d="M1013.37 1232.68H1010.37V1358.82H1013.37V1232.68Z" fill="#CCDEFF"/>
<path d="M1047.05 1261.71H1044.05V1358.81H1047.05V1261.71Z" fill="#CCDEFF"/>
<path d="M986.78 1212.54H979.78V1358.81H986.78V1212.54Z" fill="#CCDEFF"/>
<path d="M741.19 1337.41H712.19V1373.82H741.19V1337.41Z" fill="#CCDEFF"/>
<path d="M883.74 1253.47H820.74V1292.81H883.74V1253.47Z" fill="#CCDEFF"/>
<path d="M938.84 1212.54H911.84V1292.81H938.84V1212.54Z" fill="#CCDEFF"/>
<path d="M781.01 1285.68H757.01V1373.82H781.01V1285.68Z" fill="#CCDEFF"/>
<path d="M640.14 1493.31H616.64V1516.81H640.14V1493.31Z" fill="#E2EEFC"/>
<path d="M678.64 1493.31H655.14V1516.81H678.64V1493.31Z" fill="#E2EEFC"/>
<path d="M640.14 1532.81H616.64V1556.31H640.14V1532.81Z" fill="#E2EEFC"/>
<path d="M678.64 1532.81H655.14V1556.31H678.64V1532.81Z" fill="#E2EEFC"/>
<path d="M640.14 1572.31H616.64V1595.81H640.14V1572.31Z" fill="#E2EEFC"/>
<path d="M678.64 1572.31H655.14V1595.81H678.64V1572.31Z" fill="#E2EEFC"/>
<path d="M836.76 1314.1H827.76V1617.1H836.76V1314.1Z" fill="#E2EEFC"/>
<path d="M876.76 1314.1H867.76V1617.1H876.76V1314.1Z" fill="#E2EEFC"/>
<path d="M912.77 1314.1H903.77V1617.1H912.77V1314.1Z" fill="#E2EEFC"/>
<path d="M950.78 1314.1H941.78V1617.1H950.78V1314.1Z" fill="#E2EEFC"/>
<path d="M1256.1 1351.65H1098.1V1605.65H1256.1V1351.65Z" fill="#CCDEFF"/>
<path d="M1232.17 1376.74H1114.67V1399.74H1232.17V1376.74Z" fill="#E2EEFC"/>
<path d="M1232.17 1415.15H1114.67V1438.15H1232.17V1415.15Z" fill="#E2EEFC"/>
<path d="M1232.23 1453.56H1114.73V1476.56H1232.23V1453.56Z" fill="#E2EEFC"/>
<path d="M1232.23 1491.2H1114.73V1514.2H1232.23V1491.2Z" fill="#E2EEFC"/>
<path d="M1371.2 1270.65H1213.2V1605.65H1371.2V1270.65Z" fill="#CCDEFF"/>
<path d="M1709.31 1336.65H1356.2V1605.65H1709.31V1336.65Z" fill="#CCDEFF"/>
<path d="M1098.1 1456.65H1010.1V1605.65H1098.1V1456.65Z" fill="#CCDEFF"/>
<path d="M1417.84 1210.51H1414.84V1336.65H1417.84V1210.51Z" fill="#CCDEFF"/>
<path d="M1451.52 1239.55H1448.52V1336.65H1451.52V1239.55Z" fill="#CCDEFF"/>
<path d="M1391.25 1190.38H1384.25V1336.65H1391.25V1190.38Z" fill="#CCDEFF"/>
<path d="M1145.66 1315.24H1116.66V1351.65H1145.66V1315.24Z" fill="#CCDEFF"/>
<path d="M1288.21 1231.31H1225.21V1270.65H1288.21V1231.31Z" fill="#CCDEFF"/>
<path d="M1343.31 1190.38H1316.31V1270.65H1343.31V1190.38Z" fill="#CCDEFF"/>
<path d="M1185.48 1263.52H1161.48V1351.66H1185.48V1263.52Z" fill="#CCDEFF"/>
<path d="M1044.6 1471.15H1021.1V1494.65H1044.6V1471.15Z" fill="#E2EEFC"/>
<path d="M1083.1 1471.15H1059.6V1494.65H1083.1V1471.15Z" fill="#E2EEFC"/>
<path d="M1044.6 1510.65H1021.1V1534.15H1044.6V1510.65Z" fill="#E2EEFC"/>
<path d="M1083.1 1510.65H1059.6V1534.15H1083.1V1510.65Z" fill="#E2EEFC"/>
<path d="M1044.6 1550.15H1021.1V1573.65H1044.6V1550.15Z" fill="#E2EEFC"/>
<path d="M1083.1 1550.15H1059.6V1573.65H1083.1V1550.15Z" fill="#E2EEFC"/>
<path d="M1241.23 1291.94H1232.23V1594.94H1241.23V1291.94Z" fill="#E2EEFC"/>
<path d="M1281.23 1291.94H1272.23V1594.94H1281.23V1291.94Z" fill="#E2EEFC"/>
<path d="M1317.24 1291.94H1308.24V1594.94H1317.24V1291.94Z" fill="#E2EEFC"/>
<path d="M1355.24 1291.94H1346.24V1594.94H1355.24V1291.94Z" fill="#E2EEFC"/>
<path d="M1438.05 1516.64H1276.05V1639.95H1438.05V1516.64Z" fill="#CCDEFF"/>
<path d="M1590.1 1608.83H1584.1V1614.83H1590.1V1608.83Z" fill="#CCDEFF"/>
<path d="M1354.2 457.06L1329.36 449.06C1339.36 419.42 1383.28 408.59 1405.86 430.22C1394.01 416.04 1403.86 390.29 1422.15 387.63C1440.44 384.97 1457.15 406.88 1449.86 423.84C1464.01 407.53 1494.61 411.33 1504.33 430.61C1516 416.15 1541.54 416.61 1552.7 431.45C1605.2 421.636 1659.4 426.935 1709 446.73L1265.74 468.24C1297.63 462.41 1329.56 456.58 1354.2 457.06Z" fill="#E2EEFC"/>
<path d="M484.21 267L508.5 257.48C496.7 228.48 452.14 220.48 430.97 243.48C441.9 228.58 430.45 203.48 412.03 202.01C393.61 200.54 378.27 223.43 386.65 239.89C371.5 224.5 341.2 230.23 332.71 250.08C320.15 236.38 294.71 238.43 284.49 253.96C231.491 247.466 177.737 256.164 129.49 279.04L573.23 272.59C541 268.74 508.77 264.92 484.21 267Z" fill="#E2EEFC"/>
<path d="M110.88 1665C110.88 1657.04 114.041 1649.41 119.667 1643.79C125.293 1638.16 132.924 1635 140.88 1635H1868.88C1876.84 1635 1884.47 1638.16 1890.09 1643.79C1895.72 1649.41 1898.88 1657.04 1898.88 1665C1898.88 1672.96 1895.72 1680.59 1890.09 1686.21C1884.47 1691.84 1876.84 1695 1868.88 1695H140.88C136.94 1695 133.039 1694.22 129.399 1692.72C125.76 1691.21 122.453 1689 119.667 1686.21C116.881 1683.43 114.671 1680.12 113.164 1676.48C111.656 1672.84 110.88 1668.94 110.88 1665Z" fill="#3858D6"/>
<path d="M630.23 1248.86V1152.57C630.23 1149.65 631.389 1146.85 633.452 1144.79C635.515 1142.73 638.313 1141.57 641.23 1141.57H652.23V1248.86H630.23Z" fill="#FEBE3D"/>
<path d="M548.68 1157.67C551.99 1157.48 551.8 1158.67 554.23 1160.92C555.168 1161.87 555.912 1163 556.42 1164.24C559.145 1170.08 560.234 1176.55 559.57 1182.96C565.784 1177.4 572.962 1173.03 580.75 1170.06C577.27 1165.24 575.4 1159.46 573.84 1153.72C573.371 1151.74 572.701 1149.82 571.84 1147.98C571.451 1147.13 570.865 1146.37 570.13 1145.79C568.755 1144.98 567.121 1144.74 565.57 1145.11C561.36 1145.76 557.57 1147.89 553.93 1150.11C551.17 1151.83 548.473 1153.64 545.84 1155.55C544.92 1156.22 548.73 1157.03 548.65 1158.17" fill="#FBB089"/>
<path d="M560 1234.22C560 1234.22 515.61 1260.04 504.57 1252.32C504.57 1252.32 471.28 1245.86 452.69 1161.65C452.14 1159.19 451.61 1156.65 451.09 1154.05L463.89 1148.77C463.89 1148.77 466.13 1151.46 469.69 1156.03C479.39 1168.48 498.89 1194.89 509.69 1219.03C509.69 1219.03 543.57 1187.11 564.76 1179.61L560 1234.22Z" fill="#FEBE3D"/>
<path d="M558.3 1185.46C557.871 1185.53 557.466 1185.7 557.127 1185.98C556.787 1186.25 556.524 1186.6 556.364 1187.01C556.203 1187.41 556.151 1187.85 556.212 1188.28C556.272 1188.71 556.444 1189.12 556.71 1189.46C554.15 1190.06 553.12 1193.09 552.57 1195.66C544.44 1233.66 545.46 1272.89 543.49 1311.66C543.34 1317.38 542.67 1323.07 541.49 1328.66C549.953 1329.16 558.445 1328.79 566.83 1327.54C573.35 1326.54 579.83 1325.06 586.46 1325.44C592.46 1325.78 598.23 1327.67 604.13 1328.75C613.199 1330.4 622.513 1330.15 631.48 1328.01C633.59 1321.01 633.26 1313.44 632.48 1306.12C630.33 1285.25 624.87 1264.89 619.48 1244.62C617.17 1236 614.83 1227.32 611.04 1219.23C608.647 1214.36 605.997 1209.62 603.1 1205.03L584.54 1174.46C584.103 1173.52 583.349 1172.76 582.41 1172.31C581 1171.85 579.59 1172.88 578.41 1173.81C571.676 1179.24 564.139 1183.58 556.07 1186.69" fill="#FEBE3D"/>
<path d="M582.87 1163.93C572.424 1169.45 562.37 1175.69 552.78 1182.59C553.884 1184.24 554.54 1186.15 554.684 1188.13C554.828 1190.11 554.454 1192.1 553.6 1193.89C564.753 1184.5 576.887 1176.34 589.79 1169.56C587.433 1167.65 584.98 1165.85 582.44 1164.19" fill="#3858D6"/>
<path d="M701.84 1251.03H507.88V1354.95H701.84V1251.03Z" fill="#FEBE3D"/>
<path d="M556.84 1251.03H507.88V1354.95H556.84V1251.03Z" fill="#F8A23A"/>
<path d="M694.81 1257.01H647.73V1267.21H694.81V1257.01Z" fill="white"/>
<path d="M694.81 1270.96H647.73V1281.16H694.81V1270.96Z" fill="white"/>
<path d="M574.31 1173.19L584.01 1169.77C584.01 1169.77 587.28 1166.13 611.31 1189.48C635.34 1212.83 670.69 1267.07 670.69 1267.07L623 1348.42L607.39 1338.42L628.65 1266.12C628.65 1266.12 516.92 1148.9 597.89 1177.17" fill="#FEBE3D"/>
<path d="M607.56 1337.86C603.88 1338.86 600.98 1340.86 597.73 1342.86C597.398 1343.03 597.1 1343.26 596.85 1343.54C596.602 1343.91 596.438 1344.32 596.37 1344.76C595.368 1349.05 593.844 1353.19 591.83 1357.11C595.958 1358.24 600.203 1358.89 604.48 1359.04C605.036 1359.09 605.597 1359.04 606.13 1358.87C606.791 1358.57 607.35 1358.08 607.74 1357.46C608.748 1356.12 609.591 1354.66 610.25 1353.12C615.09 1352.12 619.57 1351.91 622.97 1348.45C618.66 1346.45 614.83 1342.32 610.77 1339.83C609.729 1339.09 608.636 1338.42 607.5 1337.83" fill="#FBB089"/>
<path d="M585.39 1108.45C585.86 1108.35 586.32 1108.23 586.78 1108.1C586.32 1108.23 585.85 1108.34 585.39 1108.45Z" fill="#E1C2B0"/>
<path d="M532.28 1133C532.213 1134.05 532.233 1135.1 532.34 1136.15C532.81 1141.25 534.4 1143.74 536.44 1144.7C536.586 1144.77 536.736 1144.83 536.89 1144.88C538.085 1145.26 539.366 1145.3 540.58 1144.98C540.11 1141.75 539.69 1138.65 539.39 1135.98C539.17 1134.06 538.99 1132.34 538.88 1130.91C538.19 1131.39 535.74 1128.6 535.74 1128.6C533.65 1129 532.6 1130.89 532.28 1133Z" fill="#E88A78"/>
<path d="M555.9 1162.75C557.52 1163.26 560.02 1159.24 561.31 1159.55C562.97 1159.95 564.23 1160.19 564.81 1160.3H564.94V1160.38L565.03 1160.32H565.14V1160.24C565.44 1160.06 566.08 1159.66 566.94 1159.09C567.52 1158.71 568.2 1158.24 568.94 1157.72C570.27 1156.72 574.03 1156.95 575.58 1155.63C575.87 1158.11 575.13 1159.11 576.71 1162.49C576.442 1162.82 576.155 1163.13 575.85 1163.43C574.909 1164.38 573.851 1165.2 572.7 1165.87C571.067 1166.84 569.276 1167.52 567.41 1167.87C565.801 1168.17 564.157 1168.24 562.53 1168.06C560.942 1167.89 559.39 1167.47 557.93 1166.82C557.58 1166.66 557.62 1166.41 557.28 1166.22C557.74 1163.93 558.21 1169.74 555.9 1162.75Z" fill="#E88A78"/>
<path d="M583.35 1146.25C584.766 1147.04 586.385 1147.38 588 1147.25C588.415 1147.19 588.821 1147.09 589.21 1146.93C591.21 1146.1 592.97 1143.8 593.98 1139.04C595.06 1133.95 593.98 1131.89 592.28 1131.3C592.065 1131.51 591.81 1131.68 591.53 1131.8C590.59 1132.73 586.92 1132.9 586.33 1133.94C586.23 1134.46 586.11 1135.01 585.98 1135.59C585.93 1135.85 585.87 1136.11 585.81 1136.38L585.72 1136.78C585.66 1137.05 585.59 1137.32 585.53 1137.61V1137.73C585.41 1138.23 585.29 1138.73 585.17 1139.27L585.04 1139.8C585.04 1139.8 585.04 1139.8 585.04 1139.86C584.97 1140.13 584.9 1140.41 584.84 1140.68C584.78 1140.95 584.74 1141.1 584.68 1141.31C584.23 1142.91 583.81 1144.56 583.35 1146.25Z" fill="#E88A78"/>
<path d="M546.75 1123.37L558.75 1120.97C558.4 1120.78 558.035 1120.62 557.66 1120.49C556.024 1119.92 554.269 1119.78 552.564 1120.08C550.858 1120.38 549.259 1121.12 547.92 1122.22C547.491 1122.56 547.099 1122.95 546.75 1123.37Z" fill="#FFECE6"/>
<path d="M538.88 1130.88C539 1132.31 539.17 1134.03 539.39 1135.95C539.7 1138.65 540.11 1141.74 540.58 1144.95C540.79 1146.4 541.02 1147.88 541.26 1149.36C541.76 1152.47 544.18 1155.42 547.16 1157.96C549.045 1159.55 551.051 1160.99 553.16 1162.27C554.61 1163.16 555.99 1163.92 557.16 1164.53C558.67 1165.32 559.84 1165.86 560.37 1166.1L560.49 1166.16H560.59H560.7C561.03 1166.05 561.7 1165.82 562.7 1165.48C563.35 1165.25 564.13 1164.96 564.97 1164.63C566.49 1164.03 568.27 1163.27 570.09 1162.36C572.377 1161.24 574.55 1159.9 576.58 1158.36C579.08 1156.44 581.07 1154.2 581.78 1151.71C582.31 1149.85 582.78 1148 583.29 1146.2C583.8 1144.4 584.16 1142.85 584.55 1141.29C584.55 1141.08 584.66 1140.87 584.71 1140.66C584.76 1140.45 584.85 1140.1 584.91 1139.84C584.91 1139.84 584.91 1139.84 584.91 1139.78C584.91 1139.6 585 1139.42 585.04 1139.25C585.17 1138.72 585.29 1138.25 585.4 1137.71V1137.59C585.46 1137.31 585.53 1137.03 585.59 1136.76L585.68 1136.36C585.74 1136.09 585.8 1135.83 585.85 1135.57C585.98 1134.99 586.1 1134.43 586.2 1133.92C586.173 1133.97 586.149 1134.02 586.13 1134.08C586.01 1133.31 585.9 1132.53 585.79 1131.76C584.93 1130.27 583.65 1128.07 582.17 1125.54L581.37 1124.18L580.31 1122.37L579.5 1120.99C579.22 1120.53 578.95 1120.06 578.67 1119.59L577.35 1117.36C575.643 1118.7 573.86 1119.94 572.01 1121.08C571.698 1121.08 571.387 1121.11 571.08 1121.16L571.52 1121.38C562.607 1126.67 552.484 1129.59 542.12 1129.85H540.62C540.64 1129.93 539 1131 538.88 1130.88Z" fill="#FBB089"/>
<path d="M584.28 1084.87L583.97 1084.69C586.477 1086.73 588.711 1089.08 590.62 1091.69C589.172 1088.88 586.979 1086.52 584.28 1084.87ZM571.3 1121.27C557.63 1123.27 540.94 1125.06 526.91 1124.53L527.04 1124.74C528.04 1126.5 529.39 1130.09 531.04 1132C531.378 1132.41 531.793 1132.75 532.26 1133C532.57 1130.89 533.62 1129 535.71 1128.58C535.71 1128.58 538.17 1131.36 538.86 1130.89C538.92 1130.96 540.62 1129.89 540.71 1129.89H542.21C552.577 1129.63 562.704 1126.71 571.62 1121.42L571.3 1121.27ZM529.53 1091.8L529.74 1091.89C531.5 1089.46 533.545 1087.25 535.83 1085.3C533.31 1087.02 531.166 1089.23 529.53 1091.8Z" fill="black"/>
<path d="M597.92 1116.43C597.51 1118.16 597.1 1119.9 596.64 1121.6C596.37 1122.6 596.08 1123.6 595.77 1124.6L592.71 1130.89L592.4 1131.19L592.29 1131.3C592.076 1131.51 591.821 1131.68 591.54 1131.8C590.6 1132.73 586.93 1132.9 586.34 1133.94C586.313 1133.99 586.289 1134.04 586.27 1134.1C586.16 1133.33 586.04 1132.55 585.93 1131.78C585.93 1131.48 585.84 1131.18 585.8 1130.88C585.22 1126.97 584.643 1123.06 584.07 1119.17L588.83 1118.3C592.83 1117.55 595.68 1116.96 597.02 1116.67L597.81 1116.5V1116.43H597.92Z" fill="black"/>
<path d="M577.47 1117.42L578.79 1119.65L579.62 1121.05L580.43 1122.43L581.49 1124.24L582.29 1125.6C583.77 1128.13 585.04 1130.33 585.91 1131.82C585.91 1131.52 585.82 1131.22 585.78 1130.93C585.02 1125.8 584.263 1120.67 583.51 1115.55C583.35 1114.49 583.2 1113.44 583.04 1112.38L582.04 1113.38C580.589 1114.81 579.064 1116.16 577.47 1117.42Z" fill="#E88A78"/>
<path d="M565.77 1089.22C566.14 1089.22 566.52 1089.29 566.89 1089.34C567.26 1089.39 567.52 1089.42 567.83 1089.48L568.47 1089.59L569.14 1089.73L569.8 1089.89C570.093 1089.96 570.383 1090.04 570.67 1090.13C571.04 1090.24 571.42 1090.36 571.78 1090.49L572.09 1090.6C572.33 1090.69 572.58 1090.77 572.82 1090.87L573.24 1091.04L573.54 1091.16C573.656 1091.2 573.769 1091.25 573.88 1091.31L574.88 1091.78C575.21 1091.94 575.54 1092.11 575.88 1092.29C576.22 1092.47 576.23 1092.48 576.4 1092.58L576.77 1092.8L576.87 1092.86L577.08 1092.99L577.35 1093.16C578.468 1093.86 579.535 1094.64 580.54 1095.49L580.7 1095.63C581.445 1096.26 582.156 1096.93 582.83 1097.63C582.93 1097.74 583.03 1097.84 583.12 1097.95C583.21 1098.06 583.42 1098.28 583.56 1098.45L583.98 1098.95C584.15 1099.15 584.31 1099.36 584.47 1099.56C584.63 1099.76 584.66 1099.8 584.75 1099.93C584.84 1100.06 585.06 1100.36 585.21 1100.58L585.56 1101.09C585.64 1101.21 585.72 1101.33 585.79 1101.45L585.91 1101.64C585.96 1101.71 585.99 1101.78 586.04 1101.84C586.19 1102.09 586.34 1102.34 586.48 1102.6C586.62 1102.86 586.76 1103.11 586.89 1103.38C587.02 1103.65 587.15 1103.9 587.27 1104.17C587.39 1104.44 587.51 1104.7 587.62 1104.97C587.73 1105.24 587.73 1105.24 587.78 1105.37C587.83 1105.25 587.87 1105.12 587.91 1105L587.99 1104.74V1104.65C587.99 1104.56 588.04 1104.46 588.07 1104.37C588.1 1104.28 588.18 1103.94 588.23 1103.72C588.28 1103.5 588.23 1103.56 588.28 1103.48C588.285 1103.4 588.285 1103.32 588.28 1103.24L588.34 1102.83C588.345 1102.8 588.345 1102.78 588.34 1102.75C588.345 1102.71 588.345 1102.68 588.34 1102.64C588.34 1102.52 588.34 1102.41 588.34 1102.29C588.345 1102.26 588.345 1102.24 588.34 1102.21C588.34 1102.03 588.34 1101.86 588.34 1101.68C588.34 1101.5 588.34 1101.38 588.34 1101.23C588.34 1101.08 588.34 1100.72 588.34 1100.47V1100.33C588.345 1100.23 588.345 1100.14 588.34 1100.04C588.345 1099.95 588.345 1099.86 588.34 1099.77C588.34 1099.58 588.34 1099.38 588.34 1099.19C588.34 1099.19 588.34 1099.19 588.34 1099.13C588.34 1098.93 588.29 1098.74 588.26 1098.54C588.23 1098.34 588.26 1098.25 588.18 1098.1L588.09 1097.66C588.09 1097.6 588.09 1097.53 588.09 1097.47C588.073 1097.38 588.049 1097.29 588.02 1097.21C588.02 1097.09 587.96 1096.97 587.92 1096.85C587.925 1096.8 587.925 1096.75 587.92 1096.7C587.92 1096.59 587.86 1096.47 587.82 1096.36C587.73 1096.07 587.63 1095.79 587.53 1095.51L587.38 1095.12C587.26 1094.83 587.13 1094.55 587 1094.27L586.85 1093.97L586.58 1093.48C586.58 1093.38 586.47 1093.29 586.41 1093.19C586.35 1093.09 586.29 1093 586.24 1092.9C586.19 1092.8 586 1092.52 585.87 1092.34L585.61 1091.97C585.47 1091.79 585.34 1091.61 585.2 1091.44L584.76 1090.93C584.664 1090.81 584.561 1090.7 584.45 1090.6C584.307 1090.45 584.157 1090.3 584 1090.16L583.53 1089.74L583.21 1089.47L582.76 1089.13L582.45 1088.91L581.97 1088.59L581.48 1088.3C581.37 1088.23 581.256 1088.17 581.14 1088.12L580.8 1087.95L580.48 1087.8L580.04 1087.61L579.71 1087.47H579.56L579.4 1087.41L579.08 1087.3L578.68 1087.17C578.36 1087.07 578.03 1086.98 577.68 1086.91L577.21 1086.81L576.77 1086.73H576.62H576.55L576.18 1086.68H575.72H575.51H575.16H574.6H574C573.68 1086.68 573.37 1086.68 573 1086.68H572.69L572.06 1086.76L571.44 1086.87L570.82 1087L570.21 1087.16L569.66 1087.33H569.54L569.13 1087.47L568.95 1087.54L568.44 1087.75L568.01 1087.95L567.64 1088.13H567.54L567.18 1088.32C566.687 1088.58 566.216 1088.88 565.77 1089.22Z" fill="#82635A"/>
<path d="M597.84 1116.45V1116.52L597.05 1116.69L597.62 1116.52L597.84 1116.45Z" fill="#82635A"/>
<path d="M581.36 1132.16L569.36 1127.61C571.582 1126.93 573.966 1127.01 576.138 1127.83C578.31 1128.66 580.147 1130.18 581.36 1132.16Z" fill="black"/>
<path d="M551.9 1129L541.6 1132.2C542.807 1130.71 544.431 1129.61 546.264 1129.04C548.098 1128.47 550.059 1128.45 551.9 1129Z" fill="black"/>
<path d="M548.23 1132.25C549.6 1131.82 551.23 1133.11 551.84 1135.12C552.45 1137.13 551.84 1139.12 550.5 1139.52C549.16 1139.92 547.5 1138.67 546.89 1136.66C546.28 1134.65 546.87 1132.68 548.23 1132.25Z" fill="#3858D6"/>
<path d="M570.88 1132.55C572.3 1132.42 573.61 1134.01 573.8 1136.11C573.99 1138.21 572.99 1140.01 571.56 1140.11C570.13 1140.21 568.83 1138.64 568.64 1136.55C568.45 1134.46 569.45 1132.68 570.88 1132.55Z" fill="#3858D6"/>
<path d="M556.59 1131C557.17 1133.84 557.74 1136.68 558.32 1139.52C558.214 1139.16 558.025 1138.84 557.767 1138.57C557.509 1138.3 557.191 1138.09 556.838 1137.97C556.485 1137.85 556.109 1137.81 555.74 1137.87C555.371 1137.92 555.02 1138.06 554.716 1138.28C554.413 1138.5 554.165 1138.78 553.995 1139.11C553.824 1139.44 553.735 1139.81 553.736 1140.19C553.736 1140.56 553.826 1140.93 553.997 1141.26C554.168 1141.59 554.416 1141.87 554.72 1142.09L560.99 1146.53" fill="#FB6562"/>
<path d="M554.91 1150.81C558.677 1151.84 562.673 1151.66 566.333 1150.29C569.992 1148.93 573.129 1146.45 575.3 1143.2C575.537 1145.72 574.954 1148.25 573.636 1150.41C572.319 1152.57 570.339 1154.25 567.99 1155.2C563.26 1157 557.43 1155.15 554.91 1150.81Z" fill="white"/>
<path d="M462.9 1149.23C463.9 1142.44 464.9 1135.66 465.9 1128.87C466.17 1127.02 464.1 1125.41 462.25 1125.7C461.335 1125.92 460.498 1126.38 459.831 1127.05C459.164 1127.71 458.693 1128.55 458.47 1129.46C458.043 1131.29 457.965 1133.18 458.24 1135.04C456.313 1134.15 454.252 1133.57 452.14 1133.35C451.081 1133.25 450.013 1133.4 449.027 1133.8C448.042 1134.21 447.168 1134.84 446.48 1135.65C445.399 1137.11 444.715 1138.83 444.495 1140.64C444.275 1142.45 444.527 1144.28 445.225 1145.96C445.924 1147.64 447.046 1149.11 448.482 1150.23C449.918 1151.35 451.619 1152.07 453.42 1152.34C453.52 1152.97 453.61 1153.6 453.71 1154.23C456.395 1151.95 459.524 1150.24 462.9 1149.23Z" fill="#FBB089"/>
<path d="M469.66 1156L452.66 1161.62C452.11 1159.16 451.58 1156.62 451.06 1154.02L463.86 1148.74C463.86 1148.74 466.1 1151.46 469.66 1156Z" fill="#D9D9D9"/>
<path d="M597.92 1114C597.92 1114.84 597.92 1115.68 597.84 1116.5L597.61 1116.57H522.69C522.63 1115.72 522.6 1114.87 522.6 1114C522.6 1113.13 522.6 1112 522.72 1111C523.069 1106.53 524.221 1102.15 526.12 1098.09C527.124 1095.93 528.337 1093.87 529.74 1091.94C533.797 1086.33 539.322 1081.95 545.707 1079.27C552.093 1076.59 559.092 1075.72 565.938 1076.76C572.783 1077.8 579.21 1080.71 584.513 1085.16C589.816 1089.61 593.791 1095.44 596 1102C596.28 1102.83 596.53 1103.68 596.75 1104.53C597.53 1107.63 597.923 1110.81 597.92 1114Z" fill="#FEBE3D"/>
<path d="M597.61 1116.52L597.04 1116.69C595.7 1116.98 592.82 1117.57 588.85 1118.32C587.4 1118.59 585.85 1118.89 584.09 1119.19C580.35 1119.85 576.03 1120.57 571.35 1121.26C557.68 1123.26 540.99 1125.05 526.96 1124.52C519.96 1124.26 513.65 1123.42 508.68 1121.75C508.61 1121.75 508.68 1121.75 508.68 1121.63C508.35 1115.63 522.68 1116.53 522.68 1116.53H597.68L597.61 1116.52Z" fill="#FEBE3D"/>
<path d="M736.09 1333.9V1516.26C736.092 1519.71 735.845 1523.16 735.35 1526.57H238.81C238.315 1523.16 238.068 1519.71 238.07 1516.26V1333.9C238.07 1314.85 245.637 1296.58 259.106 1283.12C272.574 1269.65 290.842 1262.08 309.89 1262.08H664.26C673.692 1262.08 683.033 1263.94 691.747 1267.54C700.462 1271.15 708.381 1276.44 715.051 1283.11C721.721 1289.78 727.012 1297.7 730.622 1306.41C734.232 1315.13 736.09 1324.47 736.09 1333.9Z" fill="#3858D6"/>
<path d="M427.78 1262.08H427.46V1262.07L427.78 1262.08Z" fill="#A54545"/>
<path d="M381.25 1248.36V1248.71H413.33L381.25 1248.36ZM381.25 1248.36V1248.71H413.33L381.25 1248.36ZM381.25 1248.36V1248.71H413.33L381.25 1248.36ZM482.14 1037.29C464.035 1037.29 446.416 1043.15 431.913 1053.98C417.41 1064.82 406.801 1080.06 401.67 1097.42L353.24 1261.33L419.44 1262.07H652.22V1252.56H423.89L360.96 1251.88L381.25 1185.76L407 1101.84C417 1069.2 448.14 1046.84 483.48 1046.84H657.57V1050.55H665.28V1037.33L482.14 1037.29ZM381.25 1248.36V1248.71H413.33L381.25 1248.36ZM381.25 1248.36V1248.71H413.33L381.25 1248.36Z" fill="#3858D6"/>
<path d="M381.25 1248.36V1248.71H413.33L381.25 1248.36Z" fill="#E87979"/>
<path d="M657.58 1050.51V1046.8H483.48C448.14 1046.8 417.01 1069.2 407 1101.8L381.25 1185.72L361 1251.88L423.93 1252.56H652.23V1491.82H665.29V1050.5H657.58V1050.51ZM427.26 1248.86H427L413.36 1248.71H381.25V1199.51L385.47 1185.77L410.69 1103.58C420.34 1072.12 450.35 1050.58 484.42 1050.58H652.23V1248.92H427.23L427.26 1248.86Z" fill="#3858D6"/>
<path d="M413.33 1248.71H381.25V1248.36L413.33 1248.71Z" fill="#F7BCBC"/>
<path d="M238.2 1413V1473.63H237.36C232.031 1473.63 226.797 1472.22 222.184 1469.55C217.571 1466.89 213.742 1463.05 211.082 1458.43C208.422 1453.82 207.025 1448.58 207.032 1443.25C207.039 1437.92 208.449 1432.69 211.12 1428.08C213.794 1423.49 217.624 1419.69 222.228 1417.04C226.833 1414.39 232.05 1413 237.36 1413H238.2Z" fill="#FBB750"/>
<path d="M238.2 1460V1473.67H237.36C232.031 1473.67 226.797 1472.26 222.184 1469.59C217.571 1466.93 213.742 1463.09 211.082 1458.47C208.422 1453.86 207.025 1448.62 207.032 1443.29C207.039 1437.96 208.449 1432.73 211.12 1428.12C212.451 1425.82 214.082 1423.71 215.97 1421.84C218.802 1436.73 226.647 1450.19 238.2 1460Z" fill="#FDEC88"/>
<path d="M233 1473.33C228.097 1472.61 223.444 1470.7 219.449 1467.77C215.454 1464.84 212.238 1460.97 210.082 1456.51C207.927 1452.05 206.897 1447.12 207.083 1442.17C207.269 1437.22 208.665 1432.39 211.15 1428.1C211 1445.31 219.5 1462.57 233 1473.33Z" fill="#FDFDFC"/>
<path d="M238.88 1411.72C251.96 1430.21 251.21 1457.3 237.14 1475.04C237 1454.45 236.82 1433.86 238.88 1411.72Z" fill="#3858D6"/>
<path d="M1357.39 970H665.29V1491.83H1357.39V970Z" fill="#3858D6"/>
<path d="M586.88 1493.81H321.58C328.913 1464.17 345.961 1437.84 370.003 1419.02C394.046 1400.21 423.698 1389.98 454.23 1389.98C484.762 1389.98 514.414 1400.21 538.457 1419.02C562.499 1437.84 579.547 1464.17 586.88 1493.81Z" fill="#3858D6"/>
<path d="M1285.61 1493.81H1012.4C1012.4 1436.46 1073.56 1389.97 1149 1389.97C1224.44 1389.97 1285.61 1436.46 1285.61 1493.81Z" fill="#3858D6"/>
<path d="M1396.68 1509.2C1396.68 1513.81 1394.85 1518.22 1391.59 1521.48C1388.33 1524.74 1383.92 1526.57 1379.31 1526.57H218.31C213.703 1526.57 209.285 1524.74 206.028 1521.48C202.77 1518.23 200.94 1513.81 200.94 1509.2C200.94 1504.59 202.77 1500.18 206.028 1496.92C209.285 1493.66 213.703 1491.83 218.31 1491.83H1379.31C1381.59 1491.83 1383.85 1492.28 1385.96 1493.15C1388.06 1494.03 1389.98 1495.3 1391.59 1496.92C1393.21 1498.53 1394.48 1500.45 1395.36 1502.55C1396.23 1504.66 1396.68 1506.92 1396.68 1509.2Z" fill="#3858D6"/>
<path d="M454.23 1639.17C519.902 1639.17 573.14 1588.76 573.14 1526.57C573.14 1464.38 519.902 1413.97 454.23 1413.97C388.558 1413.97 335.32 1464.38 335.32 1526.57C335.32 1588.76 388.558 1639.17 454.23 1639.17Z" fill="#FEBE3D"/>
<path d="M454.23 1613.38C504.858 1613.38 545.9 1574.51 545.9 1526.57C545.9 1478.63 504.858 1439.76 454.23 1439.76C403.602 1439.76 362.56 1478.63 362.56 1526.57C362.56 1574.51 403.602 1613.38 454.23 1613.38Z" fill="#3858D6"/>
<path d="M454.23 1598.94C496.436 1598.94 530.65 1566.54 530.65 1526.57C530.65 1486.6 496.436 1454.2 454.23 1454.2C412.024 1454.2 377.81 1486.6 377.81 1526.57C377.81 1566.54 412.024 1598.94 454.23 1598.94Z" fill="#FEBE3D"/>
<path d="M1149.01 1639.17C1214.68 1639.17 1267.92 1588.76 1267.92 1526.57C1267.92 1464.38 1214.68 1413.97 1149.01 1413.97C1083.34 1413.97 1030.1 1464.38 1030.1 1526.57C1030.1 1588.76 1083.34 1639.17 1149.01 1639.17Z" fill="#FEBE3D"/>
<path d="M1149.01 1613.38C1199.64 1613.38 1240.68 1574.51 1240.68 1526.57C1240.68 1478.63 1199.64 1439.76 1149.01 1439.76C1098.38 1439.76 1057.34 1478.63 1057.34 1526.57C1057.34 1574.51 1098.38 1613.38 1149.01 1613.38Z" fill="#3858D6"/>
<path d="M1149.01 1598.94C1191.22 1598.94 1225.43 1566.54 1225.43 1526.57C1225.43 1486.6 1191.22 1454.2 1149.01 1454.2C1106.8 1454.2 1072.59 1486.6 1072.59 1526.57C1072.59 1566.54 1106.8 1598.94 1149.01 1598.94Z" fill="#FEBE3D"/>
<path d="M391.94 1199.51H381.25V1285.02H391.94V1199.51Z" fill="#F8A23A"/>
<path d="M381.25 1248.36H353.25V1261.33H381.25V1248.36Z" fill="#F8A23A"/>
<path d="M425.44 1252.57V1178.29C425.44 1174.97 426.757 1171.8 429.101 1169.45C431.445 1167.11 434.625 1165.79 437.94 1165.79V1252.57H425.44Z" fill="#3858D6"/>
<path d="M1850.05 1421.43H1438.05V1635H1850.05V1421.43Z" fill="#FEBE3D"/>
<path d="M1538.55 1421.43H1438.05V1635H1538.55V1421.43Z" fill="#F8A23A"/>
<path d="M1730.8 1220.25H1488.31V1421.43H1730.8V1220.25Z" fill="#FEBE3D"/>
<path d="M1549.52 1220.25H1488.31V1421.43H1549.52V1220.25Z" fill="#F8A23A"/>
<path d="M1487.68 1421.92L1549.51 1415.92L1674.91 1422.85L1487.68 1421.92Z" fill="#EC7F37"/>
<path d="M1837.78 1439.75H1753.61V1459.51H1837.78V1439.75Z" fill="white"/>
<path d="M1839.13 1469.9H1754.96V1489.66H1839.13V1469.9Z" fill="white"/>
<path d="M1722.01 1231.83H1663.15V1251.59H1722.01V1231.83Z" fill="white"/>
<path d="M1722.01 1258.84H1663.15V1278.6H1722.01V1258.84Z" fill="white"/>
<path d="M953.18 1295.53C953.18 1293.13 954.134 1290.82 955.834 1289.12C957.533 1287.43 959.837 1286.47 962.24 1286.47H1308.24C1310.64 1286.47 1312.95 1287.43 1314.65 1289.12C1316.35 1290.82 1317.3 1293.13 1317.3 1295.53C1317.3 1297.93 1316.35 1300.24 1314.65 1301.94C1312.95 1303.64 1310.64 1304.59 1308.24 1304.59H962.24C959.837 1304.59 957.533 1303.64 955.834 1301.94C954.134 1300.24 953.18 1297.93 953.18 1295.53Z" fill="#FEBE3D"/>
<path d="M687.18 1000C687.18 997.598 688.134 995.293 689.834 993.594C691.533 991.895 693.837 990.94 696.24 990.94H1330.13C1332.53 990.94 1334.84 991.895 1336.54 993.594C1338.24 995.293 1339.19 997.598 1339.19 1000C1339.19 1002.4 1338.24 1004.71 1336.54 1006.41C1334.84 1008.11 1332.53 1009.06 1330.13 1009.06H696.24C693.837 1009.06 691.533 1008.11 689.834 1006.41C688.134 1004.71 687.18 1002.4 687.18 1000Z" fill="#FEBE3D"/>
<path d="M1086.24 1328.53C1086.24 1326.13 1087.19 1323.82 1088.89 1322.12C1090.59 1320.43 1092.9 1319.47 1095.3 1319.47H1306.19C1308.59 1319.47 1310.9 1320.43 1312.6 1322.12C1314.3 1323.82 1315.25 1326.13 1315.25 1328.53C1315.25 1330.93 1314.3 1333.24 1312.6 1334.94C1310.9 1336.64 1308.59 1337.59 1306.19 1337.59H1095.3C1092.9 1337.59 1090.59 1336.64 1088.89 1334.94C1087.19 1333.24 1086.24 1330.93 1086.24 1328.53Z" fill="#FEBE3D"/>
<path d="M1149.24 1361.53C1149.24 1359.13 1150.19 1356.82 1151.89 1355.12C1153.59 1353.43 1155.9 1352.47 1158.3 1352.47H1308.19C1310.59 1352.47 1312.9 1353.43 1314.6 1355.12C1316.3 1356.82 1317.25 1359.13 1317.25 1361.53C1317.25 1363.93 1316.3 1366.24 1314.6 1367.94C1312.9 1369.64 1310.59 1370.59 1308.19 1370.59H1158.3C1155.9 1370.59 1153.59 1369.64 1151.89 1367.94C1150.19 1366.24 1149.24 1363.93 1149.24 1361.53Z" fill="#FEBE3D"/>
<path d="M1131.41 843.52H1025.15V844.32C1010.24 844.147 995.263 844.357 980.23 844.95V843.52H863.89C861.704 838.526 860.733 833.084 861.056 827.642C861.38 822.199 862.988 816.911 865.75 812.21C874.16 798.4 890.75 791.21 906.83 790.03C922.91 788.85 938.98 792.77 954.66 796.66C942.41 777.27 945.1 749.66 960.89 733.06C976.68 716.46 1004.06 712.25 1024.07 723.46C1044.08 734.67 1054.85 760.2 1048.9 782.36C1068.6 768.71 1097.51 770.36 1115.56 786.13C1131.38 800 1137.52 823.54 1131.41 843.52Z" fill="#FEBE3D"/>
<path d="M1025.78 822.801H980.86V893.321H1025.78V822.801Z" fill="#3858D6"/>
<path d="M1003.69 771.98L964.93 826.54H1042.45L1003.69 771.98Z" fill="#3858D6"/>
<path d="M238.94 924V856.49C238.94 842.9 244.338 829.867 253.948 820.258C263.557 810.649 276.59 805.25 290.18 805.25H585.7C599.29 805.25 612.323 810.649 621.932 820.258C631.541 829.867 636.94 842.9 636.94 856.49V924C636.94 937.59 631.541 950.623 621.932 960.232C612.323 969.842 599.29 975.24 585.7 975.24H290.19C283.46 975.243 276.795 973.919 270.577 971.345C264.358 968.771 258.708 964.997 253.948 960.239C249.189 955.48 245.414 949.831 242.839 943.613C240.263 937.395 238.939 930.73 238.94 924Z" fill="#FEBE3D"/>
<path d="M301.96 860.4L309.09 883.46H332.15L313.49 897.72L320.62 920.78L301.96 906.53L283.3 920.78L290.43 897.72L271.77 883.46H294.83L301.96 860.4Z" fill="white"/>
<path d="M369.87 860.4L376.99 883.46H400.06L381.4 897.72L388.52 920.78L369.87 906.53L351.21 920.78L358.34 897.72L339.68 883.46H362.74L369.87 860.4Z" fill="white"/>
<path d="M437.79 859.71L444.92 882.77H467.98L449.32 897.03L456.45 920.09L437.79 905.84L419.13 920.09L426.26 897.03L407.6 882.77H430.66L437.79 859.71Z" fill="white"/>
<path d="M506.19 859.71L513.32 882.77H536.38L517.72 897.03L524.85 920.09L506.19 905.84L487.54 920.09L494.66 897.03L476 882.77H499.07L506.19 859.71Z" fill="white"/>
<path d="M573.92 859.71L581.05 882.77H604.11L585.45 897.03L592.58 920.09L573.92 905.84L555.26 920.09L562.39 897.03L543.73 882.77H566.79L573.92 859.71Z" fill="white"/>
<path d="M635.72 926.04L631.06 1083.6L574.71 975.57L635.72 926.04Z" fill="#FEBE3D"/>
<path d="M696.024 1102V1034.8H708.504V1102H696.024ZM754.616 1050.16C758.712 1050.16 762.36 1050.96 765.56 1052.56C768.824 1054.16 771.384 1056.62 773.24 1059.95C775.096 1063.22 776.024 1067.44 776.024 1072.62V1102H764.024V1074.16C764.024 1069.62 762.936 1066.22 760.76 1063.98C758.648 1061.74 755.672 1060.62 751.832 1060.62C749.016 1060.62 746.52 1061.2 744.344 1062.35C742.168 1063.5 740.472 1065.23 739.256 1067.54C738.104 1069.78 737.528 1072.62 737.528 1076.08V1102H725.528V1050.74H736.952V1064.56L734.936 1060.34C736.728 1057.07 739.32 1054.58 742.712 1052.85C746.168 1051.06 750.136 1050.16 754.616 1050.16ZM813.037 1102.67C808.109 1102.67 803.661 1101.58 799.693 1099.41C795.789 1097.17 792.717 1094.1 790.477 1090.19C788.237 1086.29 787.117 1081.68 787.117 1076.37C787.117 1071.06 788.237 1066.45 790.477 1062.54C792.717 1058.64 795.789 1055.6 799.693 1053.42C803.661 1051.25 808.109 1050.16 813.037 1050.16C817.325 1050.16 821.165 1051.12 824.557 1053.04C827.949 1054.9 830.637 1057.74 832.621 1061.58C834.605 1065.42 835.597 1070.35 835.597 1076.37C835.597 1082.32 834.637 1087.25 832.717 1091.15C830.797 1094.99 828.141 1097.87 824.749 1099.79C821.357 1101.71 817.453 1102.67 813.037 1102.67ZM814.477 1092.4C817.357 1092.4 819.917 1091.76 822.157 1090.48C824.461 1089.2 826.285 1087.34 827.629 1084.91C829.037 1082.48 829.741 1079.63 829.741 1076.37C829.741 1073.04 829.037 1070.19 827.629 1067.82C826.285 1065.39 824.461 1063.54 822.157 1062.26C819.917 1060.98 817.357 1060.34 814.477 1060.34C811.597 1060.34 809.005 1060.98 806.701 1062.26C804.461 1063.54 802.637 1065.39 801.229 1067.82C799.885 1070.19 799.213 1073.04 799.213 1076.37C799.213 1079.63 799.885 1082.48 801.229 1084.91C802.637 1087.34 804.461 1089.2 806.701 1090.48C809.005 1091.76 811.597 1092.4 814.477 1092.4ZM830.029 1102V1089.9L830.509 1076.27L829.549 1062.64V1030.77H841.453V1102H830.029ZM880.287 1102.67C875.039 1102.67 870.367 1101.55 866.271 1099.31C862.175 1097.01 858.943 1093.87 856.575 1089.9C854.207 1085.94 853.023 1081.42 853.023 1076.37C853.023 1071.25 854.207 1066.74 856.575 1062.83C858.943 1058.86 862.175 1055.76 866.271 1053.52C870.367 1051.28 875.039 1050.16 880.287 1050.16C885.599 1050.16 890.303 1051.28 894.399 1053.52C898.559 1055.76 901.791 1058.83 904.095 1062.74C906.463 1066.64 907.647 1071.18 907.647 1076.37C907.647 1081.42 906.463 1085.94 904.095 1089.9C901.791 1093.87 898.559 1097.01 894.399 1099.31C890.303 1101.55 885.599 1102.67 880.287 1102.67ZM880.287 1092.4C883.231 1092.4 885.855 1091.76 888.159 1090.48C890.463 1089.2 892.255 1087.34 893.535 1084.91C894.879 1082.48 895.551 1079.63 895.551 1076.37C895.551 1073.04 894.879 1070.19 893.535 1067.82C892.255 1065.39 890.463 1063.54 888.159 1062.26C885.855 1060.98 883.263 1060.34 880.383 1060.34C877.439 1060.34 874.815 1060.98 872.511 1062.26C870.271 1063.54 868.479 1065.39 867.135 1067.82C865.791 1070.19 865.119 1073.04 865.119 1076.37C865.119 1079.63 865.791 1082.48 867.135 1084.91C868.479 1087.34 870.271 1089.2 872.511 1090.48C874.815 1091.76 877.407 1092.4 880.287 1092.4ZM931.41 1086.16L930.738 1071.38L965.97 1034.8H979.986L950.706 1065.9L943.794 1073.49L931.41 1086.16ZM920.274 1102V1034.8H932.754V1102H920.274ZM967.122 1102L941.394 1071.38L949.65 1062.26L981.714 1102H967.122ZM1019.42 1102V1091.63L1018.75 1089.42V1071.28C1018.75 1067.76 1017.7 1065.04 1015.58 1063.12C1013.47 1061.14 1010.27 1060.14 1005.98 1060.14C1003.1 1060.14 1000.26 1060.59 997.441 1061.49C994.689 1062.38 992.353 1063.63 990.433 1065.23L985.729 1056.5C988.481 1054.38 991.745 1052.82 995.521 1051.79C999.361 1050.7 1003.33 1050.16 1007.42 1050.16C1014.85 1050.16 1020.58 1051.95 1024.61 1055.54C1028.7 1059.06 1030.75 1064.53 1030.75 1071.95V1102H1019.42ZM1003.3 1102.67C999.457 1102.67 996.097 1102.03 993.217 1100.75C990.337 1099.41 988.097 1097.58 986.497 1095.28C984.961 1092.91 984.193 1090.26 984.193 1087.31C984.193 1084.43 984.865 1081.84 986.209 1079.54C987.617 1077.23 989.889 1075.41 993.025 1074.06C996.161 1072.72 1000.32 1072.05 1005.5 1072.05H1020.38V1080.02H1006.37C1002.27 1080.02 999.521 1080.69 998.113 1082.03C996.705 1083.31 996.001 1084.91 996.001 1086.83C996.001 1089.01 996.865 1090.74 998.593 1092.02C1000.32 1093.3 1002.72 1093.94 1005.79 1093.94C1008.74 1093.94 1011.36 1093.26 1013.66 1091.92C1016.03 1090.58 1017.73 1088.59 1018.75 1085.97L1020.77 1093.17C1019.62 1096.18 1017.54 1098.51 1014.53 1100.18C1011.58 1101.84 1007.84 1102.67 1003.3 1102.67ZM1046.15 1102V1050.74H1057.58V1064.85L1056.23 1060.72C1057.77 1057.26 1060.17 1054.64 1063.43 1052.85C1066.76 1051.06 1070.89 1050.16 1075.82 1050.16V1061.58C1075.31 1061.46 1074.83 1061.39 1074.38 1061.39C1073.93 1061.33 1073.48 1061.3 1073.03 1061.3C1068.49 1061.3 1064.87 1062.64 1062.19 1065.33C1059.5 1067.95 1058.15 1071.89 1058.15 1077.14V1102H1046.15ZM1108.76 1121.3C1104.02 1121.3 1099.38 1120.66 1094.84 1119.38C1090.36 1118.16 1086.68 1116.37 1083.8 1114L1089.18 1104.98C1091.42 1106.83 1094.23 1108.3 1097.62 1109.39C1101.08 1110.54 1104.57 1111.12 1108.09 1111.12C1113.72 1111.12 1117.85 1109.81 1120.47 1107.18C1123.1 1104.62 1124.41 1100.75 1124.41 1095.57V1086.45L1125.37 1074.83L1124.98 1063.22V1050.74H1136.41V1094.22C1136.41 1103.5 1134.04 1110.32 1129.3 1114.67C1124.57 1119.09 1117.72 1121.3 1108.76 1121.3ZM1107.22 1099.7C1102.36 1099.7 1097.94 1098.67 1093.98 1096.62C1090.07 1094.51 1086.97 1091.6 1084.66 1087.89C1082.42 1084.18 1081.3 1079.82 1081.3 1074.83C1081.3 1069.9 1082.42 1065.58 1084.66 1061.87C1086.97 1058.16 1090.07 1055.28 1093.98 1053.23C1097.94 1051.18 1102.36 1050.16 1107.22 1050.16C1111.58 1050.16 1115.48 1051.02 1118.94 1052.75C1122.39 1054.48 1125.14 1057.17 1127.19 1060.82C1129.3 1064.46 1130.36 1069.14 1130.36 1074.83C1130.36 1080.53 1129.3 1085.23 1127.19 1088.94C1125.14 1092.59 1122.39 1095.31 1118.94 1097.1C1115.48 1098.83 1111.58 1099.7 1107.22 1099.7ZM1109.05 1089.52C1112.06 1089.52 1114.74 1088.91 1117.11 1087.7C1119.48 1086.42 1121.3 1084.69 1122.58 1082.51C1123.93 1080.27 1124.6 1077.71 1124.6 1074.83C1124.6 1071.95 1123.93 1069.42 1122.58 1067.25C1121.3 1065.01 1119.48 1063.31 1117.11 1062.16C1114.74 1060.94 1112.06 1060.34 1109.05 1060.34C1106.04 1060.34 1103.32 1060.94 1100.89 1062.16C1098.52 1063.31 1096.66 1065.01 1095.32 1067.25C1094.04 1069.42 1093.4 1071.95 1093.4 1074.83C1093.4 1077.71 1094.04 1080.27 1095.32 1082.51C1096.66 1084.69 1098.52 1086.42 1100.89 1087.7C1103.32 1088.91 1106.04 1089.52 1109.05 1089.52ZM1175.22 1102.67C1169.98 1102.67 1165.3 1101.55 1161.21 1099.31C1157.11 1097.01 1153.88 1093.87 1151.51 1089.9C1149.14 1085.94 1147.96 1081.42 1147.96 1076.37C1147.96 1071.25 1149.14 1066.74 1151.51 1062.83C1153.88 1058.86 1157.11 1055.76 1161.21 1053.52C1165.3 1051.28 1169.98 1050.16 1175.22 1050.16C1180.54 1050.16 1185.24 1051.28 1189.34 1053.52C1193.5 1055.76 1196.73 1058.83 1199.03 1062.74C1201.4 1066.64 1202.58 1071.18 1202.58 1076.37C1202.58 1081.42 1201.4 1085.94 1199.03 1089.9C1196.73 1093.87 1193.5 1097.01 1189.34 1099.31C1185.24 1101.55 1180.54 1102.67 1175.22 1102.67ZM1175.22 1092.4C1178.17 1092.4 1180.79 1091.76 1183.1 1090.48C1185.4 1089.2 1187.19 1087.34 1188.47 1084.91C1189.82 1082.48 1190.49 1079.63 1190.49 1076.37C1190.49 1073.04 1189.82 1070.19 1188.47 1067.82C1187.19 1065.39 1185.4 1063.54 1183.1 1062.26C1180.79 1060.98 1178.2 1060.34 1175.32 1060.34C1172.38 1060.34 1169.75 1060.98 1167.45 1062.26C1165.21 1063.54 1163.42 1065.39 1162.07 1067.82C1160.73 1070.19 1160.06 1073.04 1160.06 1076.37C1160.06 1079.63 1160.73 1082.48 1162.07 1084.91C1163.42 1087.34 1165.21 1089.2 1167.45 1090.48C1169.75 1091.76 1172.34 1092.4 1175.22 1092.4Z" fill="#FEBE3D"/>
<path d="M707.064 1173.48C704.504 1173.48 702.12 1173.06 699.912 1172.23C697.736 1171.37 695.832 1170.17 694.2 1168.63C692.6 1167.06 691.352 1165.22 690.456 1163.11C689.56 1161 689.112 1158.7 689.112 1156.2C689.112 1153.7 689.56 1151.4 690.456 1149.29C691.352 1147.18 692.616 1145.35 694.248 1143.82C695.88 1142.25 697.784 1141.05 699.96 1140.22C702.136 1139.35 704.52 1138.92 707.112 1138.92C709.864 1138.92 712.376 1139.4 714.648 1140.36C716.92 1141.29 718.84 1142.68 720.408 1144.54L716.376 1148.33C715.16 1147.02 713.8 1146.04 712.296 1145.4C710.792 1144.73 709.16 1144.39 707.4 1144.39C705.64 1144.39 704.024 1144.68 702.552 1145.26C701.112 1145.83 699.848 1146.65 698.76 1147.7C697.704 1148.76 696.872 1150.01 696.264 1151.45C695.688 1152.89 695.4 1154.47 695.4 1156.2C695.4 1157.93 695.688 1159.51 696.264 1160.95C696.872 1162.39 697.704 1163.64 698.76 1164.7C699.848 1165.75 701.112 1166.57 702.552 1167.14C704.024 1167.72 705.64 1168.01 707.4 1168.01C709.16 1168.01 710.792 1167.69 712.296 1167.05C713.8 1166.38 715.16 1165.37 716.376 1164.02L720.408 1167.86C718.84 1169.69 716.92 1171.08 714.648 1172.04C712.376 1173 709.848 1173.48 707.064 1173.48ZM741.369 1173V1167.82L741.033 1166.71V1157.64C741.033 1155.88 740.505 1154.52 739.449 1153.56C738.393 1152.57 736.793 1152.07 734.649 1152.07C733.209 1152.07 731.785 1152.3 730.377 1152.74C729.001 1153.19 727.833 1153.82 726.873 1154.62L724.521 1150.25C725.897 1149.19 727.529 1148.41 729.417 1147.9C731.337 1147.35 733.321 1147.08 735.369 1147.08C739.081 1147.08 741.945 1147.98 743.961 1149.77C746.009 1151.53 747.033 1154.26 747.033 1157.98V1173H741.369ZM733.305 1173.34C731.385 1173.34 729.705 1173.02 728.265 1172.38C726.825 1171.7 725.705 1170.79 724.905 1169.64C724.137 1168.46 723.753 1167.13 723.753 1165.66C723.753 1164.22 724.089 1162.92 724.761 1161.77C725.465 1160.62 726.601 1159.7 728.169 1159.03C729.737 1158.36 731.817 1158.02 734.409 1158.02H741.849V1162.01H734.841C732.793 1162.01 731.417 1162.34 730.713 1163.02C730.009 1163.66 729.657 1164.46 729.657 1165.42C729.657 1166.5 730.089 1167.37 730.953 1168.01C731.817 1168.65 733.017 1168.97 734.553 1168.97C736.025 1168.97 737.337 1168.63 738.489 1167.96C739.673 1167.29 740.521 1166.3 741.033 1164.98L742.041 1168.58C741.465 1170.09 740.425 1171.26 738.921 1172.09C737.449 1172.92 735.577 1173.34 733.305 1173.34ZM754.733 1173V1137.38H760.733V1173H754.733ZM768.608 1173V1137.38H774.608V1173H768.608ZM807.509 1173.34C804.821 1173.34 802.421 1172.78 800.309 1171.66C798.229 1170.5 796.597 1168.94 795.413 1166.95C794.229 1164.97 793.637 1162.71 793.637 1160.18C793.637 1157.62 794.229 1155.37 795.413 1153.42C796.597 1151.43 798.229 1149.88 800.309 1148.76C802.421 1147.64 804.821 1147.08 807.509 1147.08C810.005 1147.08 812.197 1147.59 814.085 1148.62C816.005 1149.61 817.461 1151.08 818.453 1153.03L813.845 1155.72C813.077 1154.5 812.133 1153.61 811.013 1153.03C809.925 1152.46 808.741 1152.17 807.461 1152.17C805.989 1152.17 804.661 1152.49 803.477 1153.13C802.293 1153.77 801.365 1154.7 800.693 1155.91C800.021 1157.1 799.685 1158.52 799.685 1160.18C799.685 1161.85 800.021 1163.29 800.693 1164.5C801.365 1165.69 802.293 1166.6 803.477 1167.24C804.661 1167.88 805.989 1168.2 807.461 1168.2C808.741 1168.2 809.925 1167.91 811.013 1167.34C812.133 1166.76 813.077 1165.86 813.845 1164.65L818.453 1167.34C817.461 1169.26 816.005 1170.74 814.085 1171.8C812.197 1172.82 810.005 1173.34 807.509 1173.34ZM835.312 1173.34C832.464 1173.34 829.968 1172.78 827.824 1171.66C825.712 1170.5 824.064 1168.94 822.88 1166.95C821.728 1164.97 821.152 1162.71 821.152 1160.18C821.152 1157.62 821.712 1155.37 822.832 1153.42C823.984 1151.43 825.552 1149.88 827.536 1148.76C829.552 1147.64 831.84 1147.08 834.4 1147.08C836.896 1147.08 839.12 1147.62 841.072 1148.71C843.024 1149.8 844.56 1151.34 845.68 1153.32C846.8 1155.3 847.36 1157.64 847.36 1160.33C847.36 1160.58 847.344 1160.87 847.312 1161.19C847.312 1161.51 847.296 1161.82 847.264 1162.1H825.904V1158.12H844.096L841.744 1159.37C841.776 1157.9 841.472 1156.6 840.832 1155.48C840.192 1154.36 839.312 1153.48 838.192 1152.84C837.104 1152.2 835.84 1151.88 834.4 1151.88C832.928 1151.88 831.632 1152.2 830.512 1152.84C829.424 1153.48 828.56 1154.38 827.92 1155.53C827.312 1156.65 827.008 1157.98 827.008 1159.51V1160.47C827.008 1162.01 827.36 1163.37 828.064 1164.55C828.768 1165.74 829.76 1166.65 831.04 1167.29C832.32 1167.93 833.792 1168.25 835.456 1168.25C836.896 1168.25 838.192 1168.02 839.344 1167.58C840.496 1167.13 841.52 1166.42 842.416 1165.46L845.632 1169.16C844.48 1170.5 843.024 1171.54 841.264 1172.28C839.536 1172.98 837.552 1173.34 835.312 1173.34ZM867.668 1147.08C869.716 1147.08 871.54 1147.48 873.14 1148.28C874.772 1149.08 876.052 1150.31 876.98 1151.98C877.908 1153.61 878.372 1155.72 878.372 1158.31V1173H872.372V1159.08C872.372 1156.81 871.828 1155.11 870.74 1153.99C869.684 1152.87 868.196 1152.31 866.276 1152.31C864.868 1152.31 863.62 1152.6 862.532 1153.18C861.444 1153.75 860.596 1154.62 859.988 1155.77C859.412 1156.89 859.124 1158.31 859.124 1160.04V1173H853.124V1147.37H858.836V1154.28L857.828 1152.17C858.724 1150.54 860.02 1149.29 861.716 1148.42C863.444 1147.53 865.428 1147.08 867.668 1147.08ZM895.631 1173.34C892.815 1173.34 890.639 1172.62 889.103 1171.18C887.567 1169.7 886.799 1167.54 886.799 1164.7V1141.7H892.799V1164.55C892.799 1165.77 893.103 1166.71 893.711 1167.38C894.351 1168.06 895.231 1168.39 896.351 1168.39C897.695 1168.39 898.815 1168.04 899.711 1167.34L901.391 1171.61C900.687 1172.18 899.823 1172.62 898.799 1172.9C897.775 1173.19 896.719 1173.34 895.631 1173.34ZM882.575 1152.36V1147.56H899.663V1152.36H882.575ZM917.531 1173.34C914.683 1173.34 912.187 1172.78 910.043 1171.66C907.931 1170.5 906.283 1168.94 905.099 1166.95C903.947 1164.97 903.371 1162.71 903.371 1160.18C903.371 1157.62 903.931 1155.37 905.051 1153.42C906.203 1151.43 907.771 1149.88 909.755 1148.76C911.771 1147.64 914.059 1147.08 916.619 1147.08C919.115 1147.08 921.339 1147.62 923.291 1148.71C925.243 1149.8 926.779 1151.34 927.899 1153.32C929.019 1155.3 929.579 1157.64 929.579 1160.33C929.579 1160.58 929.563 1160.87 929.531 1161.19C929.531 1161.51 929.515 1161.82 929.483 1162.1H908.123V1158.12H926.315L923.963 1159.37C923.995 1157.9 923.691 1156.6 923.051 1155.48C922.411 1154.36 921.531 1153.48 920.411 1152.84C919.323 1152.2 918.059 1151.88 916.619 1151.88C915.147 1151.88 913.851 1152.2 912.731 1152.84C911.643 1153.48 910.779 1154.38 910.139 1155.53C909.531 1156.65 909.227 1157.98 909.227 1159.51V1160.47C909.227 1162.01 909.579 1163.37 910.283 1164.55C910.987 1165.74 911.979 1166.65 913.259 1167.29C914.539 1167.93 916.011 1168.25 917.675 1168.25C919.115 1168.25 920.411 1168.02 921.563 1167.58C922.715 1167.13 923.739 1166.42 924.635 1165.46L927.851 1169.16C926.699 1170.5 925.243 1171.54 923.483 1172.28C921.755 1172.98 919.771 1173.34 917.531 1173.34ZM935.342 1173V1147.37H941.054V1154.42L940.382 1152.36C941.15 1150.63 942.35 1149.32 943.982 1148.42C945.646 1147.53 947.71 1147.08 950.174 1147.08V1152.79C949.918 1152.73 949.678 1152.7 949.454 1152.7C949.23 1152.66 949.006 1152.65 948.782 1152.65C946.51 1152.65 944.702 1153.32 943.358 1154.66C942.014 1155.98 941.342 1157.94 941.342 1160.57V1173H935.342ZM972.316 1173V1141.8L975.052 1144.63H965.212V1139.4H978.556V1173H972.316ZM983.541 1173L994.821 1158.31L994.725 1161.53L983.973 1147.37H990.645L998.181 1157.45H995.637L1003.22 1147.37H1009.7L998.853 1161.53L998.901 1158.31L1010.13 1173H1003.37L995.445 1162.3L997.941 1162.63L990.165 1173H983.541ZM1012.45 1173V1168.82L1025.79 1156.15C1026.91 1155.1 1027.74 1154.17 1028.29 1153.37C1028.83 1152.57 1029.18 1151.83 1029.34 1151.16C1029.53 1150.46 1029.63 1149.8 1029.63 1149.19C1029.63 1147.66 1029.1 1146.47 1028.05 1145.64C1026.99 1144.78 1025.44 1144.34 1023.39 1144.34C1021.76 1144.34 1020.27 1144.63 1018.93 1145.21C1017.61 1145.78 1016.48 1146.66 1015.52 1147.85L1011.15 1144.49C1012.46 1142.73 1014.22 1141.37 1016.43 1140.41C1018.67 1139.42 1021.17 1138.92 1023.92 1138.92C1026.35 1138.92 1028.46 1139.32 1030.25 1140.12C1032.08 1140.89 1033.47 1141.99 1034.43 1143.43C1035.42 1144.87 1035.92 1146.58 1035.92 1148.57C1035.92 1149.66 1035.77 1150.74 1035.49 1151.83C1035.2 1152.89 1034.65 1154.01 1033.85 1155.19C1033.05 1156.38 1031.89 1157.7 1030.35 1159.18L1018.88 1170.07L1017.58 1167.72H1037.21V1173H1012.45ZM1039.63 1165.37V1161.05L1056.19 1139.4H1062.86L1046.54 1161.05L1043.42 1160.09H1070.06V1165.37H1039.63ZM1058.06 1173V1165.37L1058.26 1160.09V1153.32H1064.11V1173H1058.06Z" fill="#FEBE3D"/>
</svg>
