<svg width="1418" height="1418" viewBox="0 0 1418 1418" fill="none" xmlns="http://www.w3.org/2000/svg">
<path d="M612.066 13.8477C281.661 13.8477 13.8477 281.661 13.8477 612.066V1210.29V1404.15L207.715 1210.29H805.934C1136.34 1210.29 1404.15 942.471 1404.15 612.066C1404.15 281.661 1136.34 13.8477 805.934 13.8477H612.066Z" fill="#3858D6"/>
<path d="M1230.78 559.998C1230.78 534.796 1212.5 513.193 1187.57 508.762L1079.56 489.929H895.389L933.609 409.613L1008.94 287.754C1039.4 238.456 1021.96 173.372 970.444 146.23L929.178 223.777L855.785 288.307L671.334 489.375L574.955 589.909H187.22V977.644H574.955H1079.56L1080.12 977.367L1159.33 952.995C1180.37 946.625 1194.5 927.238 1194.5 905.359C1194.5 877.941 1172.34 855.507 1144.65 855.507H1079.29L1167.91 838.613C1192.84 833.905 1211.12 812.026 1211.12 786.546C1211.12 757.189 1187.3 733.648 1158.22 733.648H1079.56L1168.19 721.739C1192.84 718.416 1211.39 697.367 1211.39 672.441C1211.39 647.516 1192.84 626.19 1167.91 623.144L1079.56 611.789H1178.71C1207.52 612.066 1230.78 588.802 1230.78 559.998Z" fill="#EF917B"/>
<path d="M894.559 490.207H805.934L1008.94 288.031L933.609 409.891L894.559 490.207Z" fill="#E96B4E"/>
<path d="M519.564 589.91H353.392V977.645H519.564V589.91Z" fill="#E96B4E"/>
<path d="M464.173 589.91H187.22V1044.11H464.173V589.91Z" fill="#E2EEFC"/>
<path d="M464.173 589.91H353.392V1044.11H464.173V589.91Z" fill="#FFCB5C"/>
<path d="M1079.56 612.066H1178.71C1207.52 612.066 1230.78 588.802 1230.78 559.999L1143.82 553.075C1109.2 550.582 1079.84 577.724 1079.56 612.066ZM1211.39 672.719L1143.82 671.334C1108.64 670.78 1079.84 698.752 1079.56 733.925L1168.19 722.016C1192.84 718.693 1211.39 697.644 1211.39 672.719ZM1079.56 855.785L1168.19 838.891C1193.11 834.182 1211.39 812.303 1211.39 786.823L1141.05 790.978C1106.7 793.193 1079.84 821.443 1079.56 855.785ZM1159.33 953.272C1180.37 946.902 1194.5 927.516 1194.5 905.636L1134.68 914.222C1103.1 918.93 1079.56 945.794 1079.29 977.644L1079.84 977.367L1159.33 953.272Z" fill="#E96B4E"/>
</svg>
